<svg width="403" height="280" viewBox="0 0 403 280" fill="none" xmlns="http://www.w3.org/2000/svg">
<path d="M80.1839 280C124.468 280 160.368 277.273 160.368 273.91C160.368 270.547 124.468 267.82 80.1839 267.82C35.8996 267.82 0 270.547 0 273.91C0 277.273 35.8996 280 80.1839 280Z" fill="#E6E6E6"/>
<path d="M61.2911 62.1271C75.2455 56.1918 92.626 59.9523 109.6 62.5623C109.758 59.4016 111.672 55.5549 109.667 53.3498C107.23 50.6709 107.455 47.8561 108.921 45.025C112.67 37.7857 107.298 30.0825 101.875 23.6775C100.652 22.2371 99.1071 21.1053 97.3651 20.3742C95.6231 19.643 93.7332 19.333 91.8489 19.4695L81.8018 20.1871C79.3569 20.3617 77.0237 21.2789 75.1144 22.8158C73.205 24.3527 71.8105 26.4361 71.1176 28.7872C68.7185 32.0499 67.4345 35.3037 68.2429 38.5405C64.6495 40.9961 64.0458 43.9604 65.6605 47.302C67.0298 49.4061 67.0152 51.4541 65.5982 53.4455C63.7374 55.9844 62.3121 58.8153 61.3809 61.8223L61.2911 62.1271Z" fill="#2F2E41"/>
<path d="M392.906 242.056H108.498C105.968 242.056 103.543 241.051 101.754 239.262C99.9659 237.474 98.9612 235.048 98.9612 232.519C202.059 220.537 303.219 220.537 402.442 232.519C402.442 235.048 401.437 237.474 399.649 239.262C397.861 241.051 395.435 242.056 392.906 242.056Z" fill="#2F2E41"/>
<path d="M402.442 233.08L98.9612 232.519L134.134 173.338L134.302 173.057V42.6276C134.302 41.0445 134.613 39.4768 135.219 38.0142C135.825 36.5515 136.713 35.2225 137.832 34.1031C138.952 32.9836 140.281 32.0957 141.743 31.4899C143.206 30.8841 144.774 30.5724 146.357 30.5725H353.363C354.947 30.5724 356.514 30.8841 357.977 31.4899C359.44 32.0957 360.769 32.9836 361.888 34.1031C363.007 35.2225 363.895 36.5515 364.501 38.0142C365.107 39.4768 365.419 41.0445 365.419 42.6276V173.955L402.442 233.08Z" fill="#3F3D56"/>
<path d="M146.082 38.9869C145.041 38.9881 144.043 39.4022 143.307 40.1383C142.571 40.8745 142.157 41.8726 142.155 42.9137V161.838C142.157 162.879 142.571 163.877 143.307 164.613C144.043 165.349 145.041 165.763 146.082 165.765H355.321C356.362 165.763 357.36 165.349 358.096 164.613C358.833 163.877 359.247 162.879 359.248 161.838V42.9137C359.247 41.8726 358.833 40.8745 358.097 40.1384C357.36 39.4023 356.362 38.9882 355.321 38.9869H146.082Z" fill="white"/>
<path d="M146.959 181.471C146.637 181.472 146.322 181.565 146.051 181.738C145.781 181.912 145.565 182.159 145.43 182.451L134.592 206.011C134.474 206.268 134.423 206.55 134.442 206.831C134.462 207.113 134.552 207.385 134.704 207.623C134.856 207.86 135.066 208.056 135.313 208.191C135.561 208.327 135.839 208.398 136.121 208.398H364.032C364.319 208.398 364.601 208.324 364.852 208.185C365.102 208.045 365.313 207.843 365.464 207.599C365.614 207.355 365.7 207.077 365.713 206.79C365.726 206.504 365.665 206.219 365.537 205.962L353.757 182.402C353.618 182.122 353.403 181.886 353.137 181.722C352.871 181.557 352.565 181.471 352.252 181.471H146.959Z" fill="#2F2E41"/>
<path d="M249.86 37.0236C251.254 37.0236 252.385 35.8934 252.385 34.4992C252.385 33.1051 251.254 31.9749 249.86 31.9749C248.466 31.9749 247.336 33.1051 247.336 34.4992C247.336 35.8934 248.466 37.0236 249.86 37.0236Z" fill="white"/>
<path d="M227.458 212.885C227.089 212.886 226.729 213.008 226.435 213.233C226.142 213.458 225.93 213.774 225.834 214.131L223.115 224.228C223.048 224.477 223.039 224.739 223.089 224.992C223.139 225.246 223.247 225.484 223.404 225.689C223.561 225.894 223.763 226.06 223.995 226.175C224.227 226.289 224.482 226.349 224.74 226.349H276.44C276.709 226.349 276.973 226.284 277.211 226.162C277.45 226.039 277.655 225.86 277.811 225.642C277.967 225.423 278.068 225.171 278.106 224.905C278.144 224.639 278.118 224.369 278.03 224.115L274.535 214.018C274.42 213.687 274.206 213.401 273.921 213.198C273.636 212.995 273.295 212.886 272.945 212.885H227.458Z" fill="#2F2E41"/>
<path d="M365.418 171.094V173.337H134.134L134.308 173.057V171.094H365.418Z" fill="#2F2E41"/>
<path d="M358.968 78.5348C380.654 78.5348 398.235 60.9542 398.235 39.2674C398.235 17.5806 380.654 0 358.968 0C337.281 0 319.7 17.5806 319.7 39.2674C319.7 60.9542 337.281 78.5348 358.968 78.5348Z" fill="#0040FF"/>
<path d="M375.235 56.3768H342.7C342.105 56.3762 341.534 56.1396 341.114 55.7189C340.693 55.2983 340.456 54.7279 340.456 54.1329V34.4992C340.456 33.9043 340.693 33.3339 341.114 32.9133C341.534 32.4926 342.105 32.256 342.7 32.2554H375.235C375.83 32.256 376.401 32.4926 376.821 32.9133C377.242 33.3339 377.479 33.9043 377.479 34.4992V54.1329C377.479 54.7278 377.242 55.2983 376.821 55.7189C376.401 56.1396 375.83 56.3762 375.235 56.3768ZM342.7 34.4992V54.1329H375.237L375.235 34.4992L342.7 34.4992Z" fill="white"/>
<path d="M369.065 34.4992H348.87V25.5238C348.87 19.0229 353.117 14.3046 358.967 14.3046C364.818 14.3046 369.065 19.0229 369.065 25.5238L369.065 34.4992ZM351.114 32.2554H366.821V25.5238C366.821 20.2393 363.592 16.5484 358.968 16.5484C354.343 16.5484 351.114 20.2393 351.114 25.5238L351.114 32.2554Z" fill="white"/>
<path d="M358.968 45.9989C360.207 45.9989 361.211 44.9943 361.211 43.7551C361.211 42.5158 360.207 41.5112 358.968 41.5112C357.728 41.5112 356.724 42.5158 356.724 43.7551C356.724 44.9943 357.728 45.9989 358.968 45.9989Z" fill="white"/>
<path d="M331.555 125.427H169.848C169.054 125.426 168.293 125.11 167.731 124.549C167.17 123.987 166.854 123.226 166.853 122.432V82.3193C166.854 81.5254 167.17 80.7643 167.731 80.2029C168.293 79.6415 169.054 79.3257 169.848 79.3248H331.555C332.349 79.3257 333.111 79.6415 333.672 80.2029C334.233 80.7643 334.549 81.5254 334.55 82.3193V122.432C334.549 123.226 334.233 123.987 333.672 124.549C333.111 125.11 332.349 125.426 331.555 125.427ZM169.848 80.5226C169.371 80.5231 168.915 80.7126 168.578 81.0495C168.241 81.3863 168.052 81.843 168.051 82.3194V122.432C168.052 122.908 168.241 123.365 168.578 123.702C168.915 124.039 169.371 124.228 169.848 124.229H331.555C332.032 124.228 332.489 124.039 332.825 123.702C333.162 123.365 333.352 122.908 333.352 122.432V82.3193C333.352 81.843 333.162 81.3863 332.825 81.0494C332.489 80.7126 332.032 80.5231 331.555 80.5226L169.848 80.5226Z" fill="#E6E6E6"/>
<path d="M194.974 113.035C201.711 113.035 207.172 107.574 207.172 100.837C207.172 94.0996 201.711 88.6382 194.974 88.6382C188.237 88.6382 182.776 94.0996 182.776 100.837C182.776 107.574 188.237 113.035 194.974 113.035Z" fill="#E6E6E6"/>
<path d="M223.146 92.7044C222.879 92.704 222.614 92.7562 222.367 92.8582C222.12 92.9602 221.896 93.1099 221.707 93.2987C221.518 93.4876 221.367 93.7118 221.265 93.9587C221.163 94.2056 221.11 94.4702 221.11 94.7375C221.11 95.0047 221.163 95.2693 221.265 95.5162C221.367 95.7631 221.518 95.9874 221.707 96.1762C221.896 96.365 222.12 96.5147 222.367 96.6167C222.614 96.7187 222.879 96.7709 223.146 96.7705H318.99C319.53 96.7705 320.047 96.5563 320.428 96.175C320.809 95.7938 321.023 95.2767 321.023 94.7375C321.023 94.1983 320.809 93.6811 320.428 93.2999C320.047 92.9186 319.53 92.7044 318.99 92.7044H223.146Z" fill="#E6E6E6"/>
<path d="M223.146 104.903C222.607 104.903 222.09 105.117 221.709 105.498C221.327 105.879 221.113 106.397 221.113 106.936C221.113 107.475 221.327 107.992 221.709 108.373C222.09 108.755 222.607 108.969 223.146 108.969H264.388C264.927 108.969 265.445 108.755 265.826 108.373C266.207 107.992 266.421 107.475 266.421 106.936C266.421 106.397 266.207 105.879 265.826 105.498C265.445 105.117 264.927 104.903 264.388 104.903H223.146Z" fill="#E6E6E6"/>
<path d="M133.736 105.725L103.843 121.618L103.464 108.374C113.221 106.745 122.504 103.909 131.087 99.2925L134.213 91.5684C134.554 90.7267 135.108 89.9882 135.82 89.4251C136.532 88.8621 137.379 88.4939 138.276 88.3569C139.174 88.2198 140.092 88.3185 140.94 88.6433C141.788 88.9681 142.537 89.5078 143.113 90.2094C143.956 91.236 144.378 92.5446 144.292 93.8704C144.206 95.1961 143.62 96.4397 142.652 97.3493L133.736 105.725Z" fill="#FFB8B8"/>
<path d="M60.6953 197.482C60.4772 196.682 60.4309 195.846 60.5594 195.027C60.6879 194.208 60.9883 193.425 61.4409 192.731L68.0075 182.653C69.5607 180.269 71.9439 178.548 74.6947 177.822C77.4456 177.096 80.368 177.418 82.8948 178.725C80.1351 183.423 80.5198 187.544 83.848 191.125C78.6814 193.647 73.9063 196.903 69.6706 200.79C68.8973 201.317 68.0093 201.652 67.0804 201.767C66.1516 201.881 65.2089 201.772 64.3308 201.448C63.4526 201.125 62.6646 200.596 62.0322 199.906C61.3998 199.216 60.9414 198.385 60.6953 197.482Z" fill="#2F2E41"/>
<path d="M135.097 184.306C134.103 185.962 132.701 187.335 131.024 188.293C129.347 189.25 127.452 189.761 125.52 189.776L81.896 190.106L80.0041 179.133L99.302 173.457L83.0312 160.97L100.816 140.159L133.118 170.265C135.005 172.025 136.232 174.38 136.593 176.935C136.953 179.491 136.425 182.092 135.097 184.306Z" fill="#2F2E41"/>
<path d="M75.085 259.352H64.8684C55.6954 196.475 46.3582 133.422 73.9498 109.887L106.491 115.185L102.329 142.807L84.1664 163.619L75.085 259.352Z" fill="#2F2E41"/>
<path d="M84.0658 273.596C83.266 273.814 82.4291 273.86 81.6102 273.732C80.7912 273.603 80.0087 273.303 79.3141 272.85L68.221 271.359C65.8373 269.806 64.1155 267.423 63.3896 264.672C62.6637 261.921 62.9855 258.999 64.2925 256.472C68.9903 259.232 73.1113 258.847 76.6924 255.518C79.2227 260.627 83.3917 260.316 87.3733 264.62C87.9005 265.393 88.2353 266.281 88.3499 267.21C88.4644 268.139 88.3553 269.082 88.0317 269.96C87.7081 270.838 87.1794 271.626 86.4895 272.258C85.7997 272.891 84.9687 273.349 84.0658 273.596Z" fill="#2F2E41"/>
<path d="M99.302 67.886L80.3825 63.3453C83.5247 56.9134 83.7834 49.7566 82.2744 42.1554L95.1397 41.777C95.5428 51.2293 96.7624 60.0601 99.302 67.886Z" fill="#FFB8B8"/>
<path d="M104.502 126.578C90.729 135.963 80.9976 126.899 73.5714 112.915C74.6033 104.357 72.9325 94.1167 69.8379 82.9896C68.4617 78.0817 68.9755 72.8362 71.2779 68.2887C73.5803 63.7412 77.5041 60.2221 82.2744 58.4263L98.5452 65.2373C112.361 76.4988 115.08 88.6972 109.897 101.563L104.502 126.578Z" fill="#0040FF"/>
<path d="M64.8684 77.3458L49.7328 85.292L76.5985 101.184L80.3367 110.405C80.5862 111.021 80.7078 111.681 80.694 112.345C80.6801 113.009 80.5312 113.663 80.2563 114.267C79.9814 114.872 79.5863 115.414 79.095 115.861C78.6037 116.308 78.0266 116.65 77.3987 116.866C76.6851 117.112 75.9241 117.19 75.1755 117.093C74.4269 116.996 73.7109 116.727 73.0836 116.307C72.4563 115.887 71.9347 115.327 71.5598 114.672C71.1848 114.017 70.9667 113.284 70.9223 112.53L70.5443 106.104L36.3982 94.8353C35.2477 94.4557 34.1988 93.8192 33.3307 92.9741C32.4626 92.129 31.7983 91.0975 31.3879 89.9576C30.7897 88.296 30.7593 86.4831 31.3013 84.8024C31.8434 83.1217 32.9273 81.6681 34.3834 80.6691L61.8413 61.8318L64.8684 77.3458Z" fill="#FFB8B8"/>
<path d="M80.0041 78.8594C73.6916 76.093 67.9514 79.0981 60.7061 81.5081L59.571 61.4534C66.7652 57.6189 73.6245 56.5851 80.0041 59.5614L80.0041 78.8594Z" fill="#0040FF"/>
<path d="M87.5553 51.7108C94.2265 51.7108 99.6347 46.3027 99.6347 39.6314C99.6347 32.9601 94.2265 27.552 87.5553 27.552C80.884 27.552 75.4758 32.9601 75.4758 39.6314C75.4758 46.3027 80.884 51.7108 87.5553 51.7108Z" fill="#FFB8B8"/>
<path d="M102.006 38.1073C90.0465 39.2786 80.9333 37.3227 75.109 31.7534V27.2684H100.991L102.006 38.1073Z" fill="#2F2E41"/>
</svg>
